<?xml version="1.0" encoding="UTF-8" standalone="no"?>
<!-- Created with Inkscape (http://www.inkscape.org/) -->

<svg
   width="97.312637mm"
   height="87.133606mm"
   viewBox="0 0 97.312637 87.133606"
   version="1.1"
   id="svg1"
   xmlns="http://www.w3.org/2000/svg"
   xmlns:svg="http://www.w3.org/2000/svg">
  <defs
     id="defs1" />
  <g
     id="layer1"
     transform="translate(-56.34391,-104.93302)"
     style="stroke:none">
    <g
       id="g1"
       transform="translate(1.4118741,6.0122977)"
       style="display:none;stroke:none">
      <path
         id="path1"
         style="font-weight:900;font-size:32.4556px;font-family:Montserrat;-inkscape-font-specification:'Montserrat Heavy';fill:#001a23;fill-opacity:1;stroke:none;stroke-width:1.29993;stroke-dasharray:none;stroke-opacity:1"
         d="m 96.470081,127.51263 v 0.003 h -4.879304 a 1.8386327,1.8386327 135 0 0 -1.838633,1.83863 v 4.37857 a 1.8386327,1.8386327 45 0 0 1.838633,1.83863 h 4.814708 v 12.53691 c 0,1.17403 0.951737,2.11992 2.125761,2.12249 1.157624,0.003 2.315434,0.01 3.472794,0.0101 1.17391,3.4e-4 2.12553,-0.96154 2.12553,-2.13557 v -3.45632 h 1.16117 c 2.12042,0 3.9487,-0.34632 5.48493,-1.0387 1.55788,-0.71402 2.75904,-1.70928 3.60288,-2.98586 0.84385,-1.27659 1.26556,-2.79131 1.26556,-4.54391 0,-1.75261 -0.42171,-3.26732 -1.26556,-4.54391 -0.84384,-1.29822 -2.045,-2.29348 -3.60288,-2.98586 -0.66825,-0.30119 -1.39523,-0.53263 -2.17402,-0.7028 -1.29639,-0.2307 -2.20256,-0.33585 -3.31091,-0.3358 z"
         transform="matrix(3.2178622,0,0,3.2178622,-230.28587,-300.99241)" />
      <path
         id="path7"
         style="font-weight:900;font-size:32.4556px;font-family:Montserrat;-inkscape-font-specification:'Montserrat Heavy';display:inline;fill:#b3efb2;fill-opacity:1;stroke:none;stroke-width:1.29993;stroke-dasharray:none;stroke-opacity:1"
         d="m 96.470081,127.51263 v 0.003 h -4.879304 a 1.8386327,1.8386327 135 0 0 -1.838633,1.83863 v 4.37857 a 1.8386327,1.8386327 45 0 0 1.838633,1.83863 h 4.814708 v 12.53691 c 0,1.17403 0.951737,2.11992 2.125761,2.12249 1.157624,0.003 2.315434,0.01 3.472794,0.0101 1.17391,3.4e-4 2.12553,-0.96154 2.12553,-2.13557 v -3.45632 h 1.16117 c 2.12042,0 3.9487,-0.34632 5.48493,-1.0387 1.55788,-0.71402 2.75904,-1.70928 3.60288,-2.98586 0.84385,-1.27659 1.26556,-2.79131 1.26556,-4.54391 0,-1.75261 -0.42171,-3.26732 -1.26556,-4.54391 -0.84384,-1.29822 -2.045,-2.29348 -3.60288,-2.98586 -0.66825,-0.30119 -1.39523,-0.53263 -2.17402,-0.7028 -1.29639,-0.2307 -2.20256,-0.33585 -3.31091,-0.3358 z"
         transform="matrix(3.2178622,0,0,3.2178622,-223.47472,-307.80356)" />
    </g>
    <g
       id="g8"
       style="display:inline;stroke:none;stroke-opacity:1">
      <path
         id="path6"
         style="-inkscape-font-specification:'Montserrat Heavy';fill:#001a23;stroke:#e8f1f2;stroke-width:3;stroke-dasharray:none;stroke-opacity:1"
         d="m 116.74781,106.43333 -30.474627,0.002 v 0.0103 H 72.664194 c -4.020403,0 -7.373442,3.01951 -7.920963,6.89725 -3.878744,0.54659 -6.89931,3.89984 -6.899321,7.92096 v 14.08958 c 5e-6,4.3979 3.609879,8.00778 8.00778,8.00778 h 13.402283 v 38.25245 c 0,4.90753 4.027696,8.90807 8.925553,8.91987 3.72051,0.01 7.449323,0.0328 11.181747,0.0331 4.252477,8.6e-4 7.820437,-3.03081 8.712127,-7.02179 4.01094,-0.88424 7.03006,-4.49658 7.03006,-8.75348 v -2.44067 c 4.9447,-0.43765 9.39893,-1.52868 13.34183,-3.30574 l 0.008,-0.002 0.006,-0.004 c 5.10071,-2.33779 9.17428,-5.63875 12.09693,-9.83867 2.88273,-2.03168 5.2949,-4.47524 7.18044,-7.32772 2.95832,-4.47539 4.41989,-9.80015 4.41989,-15.77527 0,-5.97354 -1.46112,-11.29651 -4.41782,-15.77113 -2.94132,-4.52045 -7.16093,-7.99915 -12.48037,-10.36526 l -0.006,-0.002 c -2.30092,-1.03653 -4.777,-1.82315 -7.40214,-2.39676 l -0.0413,-0.008 -0.0388,-0.008 c -4.22919,-0.75261 -7.32269,-1.11327 -11.02154,-1.11311 z m 0,4.18373 c 3.41559,-1.6e-4 6.15185,0.31761 10.22883,1.04128 2.37577,0.52059 4.57078,1.21953 6.56239,2.11718 l 0.004,0.002 0.006,0.002 c 4.6979,2.08792 8.20249,5.00953 10.68979,8.83615 l 0.004,0.008 0.004,0.006 c 2.47249,3.7404 3.7269,8.16479 3.7269,13.46895 0,4.84024 -1.05662,8.94055 -3.11815,12.46435 0.31537,-1.81282 0.48886,-3.69474 0.48886,-5.65443 0,-5.96993 -1.45696,-11.28836 -4.41007,-15.76131 l -0.004,-0.006 c -2.94146,-4.5227 -7.16325,-8.00248 -12.4845,-10.3694 l -0.006,-0.002 c -2.30092,-1.03654 -4.77751,-1.82107 -7.40265,-2.39468 l -0.0388,-0.0103 -0.0413,-0.006 c -4.22919,-0.75261 -7.32063,-1.11327 -11.01948,-1.11311 H 79.462746 v 0.0103 H 69.04271 c 0.496735,-1.53334 1.906599,-2.62723 3.621484,-2.62723 h 17.792713 v -0.01 z m -5.82755,61.93472 v 2.23965 c 0,1.87616 -1.07136,3.47763 -2.62723,4.26124 v -6.48022 h 1.64434 c 0.33275,0 0.654,-0.0155 0.98289,-0.0207 z" />
      <path
         id="path4"
         style="-inkscape-font-specification:'Montserrat Heavy';display:inline;fill:#b3efb2;stroke:none;stroke-opacity:1"
         d="m 116.74781,110.61706 -26.290902,0.002 v 0.01 H 72.664195 c -2.137239,0 -3.826117,1.68682 -3.826123,3.82406 v 14.09009 c 2e-6,2.13724 1.688881,3.82406 3.826123,3.82406 h 17.584457 v 42.4341 c 0,2.64753 2.096777,4.73222 4.753715,4.73822 3.729641,0.01 7.453833,0.0328 11.169863,0.0331 2.63473,6.9e-4 4.74803,-2.13344 4.74803,-4.78111 v -13.21314 h 5.82807 c 6.59371,1e-5 12.17296,-1.07706 16.78709,-3.15588 4.70976,-2.16019 8.22482,-5.09469 10.71097,-8.85579 2.47249,-3.74041 3.7269,-8.16432 3.7269,-13.46843 0,-5.30416 -1.25441,-9.72855 -3.7269,-13.46895 l -0.004,-0.006 -0.004,-0.008 c -2.4873,-3.82662 -5.99189,-6.74823 -10.68979,-8.83615 l -0.006,-0.002 -0.004,-0.002 c -1.99161,-0.89765 -4.18662,-1.59659 -6.56239,-2.11718 -4.07698,-0.72367 -6.81324,-1.04144 -10.22883,-1.04128 z"
         transform="translate(-1.0625e-6)" />
      <path
         id="path8"
         style="-inkscape-font-specification:'Montserrat Heavy';fill:#001a23;stroke:none;stroke-opacity:1"
         d="m 116.74781,106.43333 -30.474627,0.002 v 0.0103 H 72.664194 c -4.020403,0 -7.373442,3.01951 -7.920963,6.89725 -3.878744,0.54659 -6.89931,3.89984 -6.899321,7.92096 v 14.08958 c 5e-6,4.3979 3.609879,8.00778 8.00778,8.00778 h 13.402283 v 38.25245 c 0,4.90753 4.027696,8.90807 8.925553,8.91987 3.72051,0.01 7.449323,0.0328 11.181747,0.0331 4.252477,8.6e-4 7.820437,-3.03081 8.712127,-7.02179 4.01094,-0.88424 7.03006,-4.49658 7.03006,-8.75348 v -2.44067 c 4.9447,-0.43765 9.39893,-1.52868 13.34183,-3.30574 l 0.008,-0.002 0.006,-0.004 c 5.10071,-2.33779 9.17428,-5.63875 12.09693,-9.83867 2.88273,-2.03168 5.2949,-4.47524 7.18044,-7.32772 2.95832,-4.47539 4.41989,-9.80015 4.41989,-15.77527 0,-5.97354 -1.46112,-11.29651 -4.41782,-15.77113 -2.94132,-4.52045 -7.16093,-7.99915 -12.48037,-10.36526 l -0.006,-0.002 c -2.30092,-1.03653 -4.777,-1.82315 -7.40214,-2.39676 l -0.0413,-0.008 -0.0388,-0.008 c -4.22919,-0.75261 -7.32269,-1.11327 -11.02154,-1.11311 z m 0,4.18373 c 3.41559,-1.6e-4 6.15185,0.31761 10.22883,1.04128 2.37577,0.52059 4.57078,1.21953 6.56239,2.11718 l 0.004,0.002 0.006,0.002 c 4.6979,2.08792 8.20249,5.00953 10.68979,8.83615 l 0.004,0.008 0.004,0.006 c 2.47249,3.7404 3.7269,8.16479 3.7269,13.46895 0,4.84024 -1.05662,8.94055 -3.11815,12.46435 0.31537,-1.81282 0.48886,-3.69474 0.48886,-5.65443 0,-5.96993 -1.45696,-11.28836 -4.41007,-15.76131 l -0.004,-0.006 c -2.94146,-4.5227 -7.16325,-8.00248 -12.4845,-10.3694 l -0.006,-0.002 c -2.30092,-1.03654 -4.77751,-1.82107 -7.40265,-2.39468 l -0.0388,-0.0103 -0.0413,-0.006 c -4.22919,-0.75261 -7.32063,-1.11327 -11.01948,-1.11311 H 79.462746 v 0.0103 H 69.04271 c 0.496735,-1.53334 1.906599,-2.62723 3.621484,-2.62723 h 17.792713 v -0.01 z m -5.82755,61.93472 v 2.23965 c 0,1.87616 -1.07136,3.47763 -2.62723,4.26124 v -6.48022 h 1.64434 c 0.33275,0 0.654,-0.0155 0.98289,-0.0207 z" />
      <path
         id="path9"
         style="-inkscape-font-specification:'Montserrat Heavy';display:inline;fill:#b3efb2;stroke:none;stroke-opacity:1"
         d="m 116.74781,110.61706 -26.290902,0.002 v 0.01 H 72.664195 c -2.137239,0 -3.826117,1.68682 -3.826123,3.82406 v 14.09009 c 2e-6,2.13724 1.688881,3.82406 3.826123,3.82406 h 17.584457 v 42.4341 c 0,2.64753 2.096777,4.73222 4.753715,4.73822 3.729641,0.01 7.453833,0.0328 11.169863,0.0331 2.63473,6.9e-4 4.74803,-2.13344 4.74803,-4.78111 v -13.21314 h 5.82807 c 6.59371,1e-5 12.17296,-1.07706 16.78709,-3.15588 4.70976,-2.16019 8.22482,-5.09469 10.71097,-8.85579 2.47249,-3.74041 3.7269,-8.16432 3.7269,-13.46843 0,-5.30416 -1.25441,-9.72855 -3.7269,-13.46895 l -0.004,-0.006 -0.004,-0.008 c -2.4873,-3.82662 -5.99189,-6.74823 -10.68979,-8.83615 l -0.006,-0.002 -0.004,-0.002 c -1.99161,-0.89765 -4.18662,-1.59659 -6.56239,-2.11718 -4.07698,-0.72367 -6.81324,-1.04144 -10.22883,-1.04128 z"
         transform="translate(-1.0625e-6)" />
    </g>
  </g>
</svg>
